<svg xmlns="http://www.w3.org/2000/svg" width="914" height="718" viewBox="0 0 914 718" fill="none"><g clip-path="url(#clip0_867_502)"><mask id="mask0_867_502" style="mask-type:luminance" maskUnits="userSpaceOnUse" x="-782" y="-202" width="1699" height="921"><path d="M-781.807 718.2L916.181 718.2L916.181 -201.475L-781.807 -201.475V718.2Z" fill="white"></path></mask><g mask="url(#mask0_867_502)"><path d="M597.326 351.028C618.025 351.028 634.805 334.26 634.805 313.576C634.805 292.892 618.025 276.124 597.326 276.124C576.626 276.124 559.846 292.892 559.846 313.576C559.846 334.26 576.626 351.028 597.326 351.028Z" fill="#16529C"></path><path d="M477.294 216.293C487.26 214.68 494.031 205.299 492.417 195.341C490.803 185.382 481.415 178.616 471.449 180.229C461.482 181.842 454.712 191.223 456.326 201.182C457.94 211.14 467.328 217.906 477.294 216.293Z" fill="#16529C"></path><path d="M355.696 153.584C365.662 151.968 372.429 142.585 370.811 132.627C369.194 122.669 359.804 115.906 349.838 117.523C339.872 119.139 333.105 128.522 334.722 138.48C336.34 148.439 345.73 155.201 355.696 153.584Z" fill="#16529C"></path><path d="M283.615 414.089C283.615 423.085 290.872 430.337 299.874 430.337C308.877 430.337 316.134 423.085 316.134 414.089C316.134 405.094 308.877 397.842 299.874 397.842C290.872 397.842 283.615 405.094 283.615 414.089Z" fill="#16529C"></path><path d="M292.617 404.176L296.384 428.134C296.384 428.134 324.677 416.017 325.78 413.998C326.882 411.886 325.596 392.334 325.596 392.334L292.617 404.268V404.176Z" fill="#16529C"></path><path d="M341.58 298.522L325.78 318.533L345.806 332.21L341.58 298.522Z" fill="#4C3594"></path><path d="M368.679 133.203L341.948 122.738L326.239 174.142L343.601 181.669L368.679 133.203Z" fill="#16529C"></path><path d="M488.836 202.415L466.605 187.177L426.185 237.021L446.12 252.901L488.836 202.415Z" fill="#16529C"></path><path d="M665.855 610.985L661.905 608.691L764.607 496.611L780.132 519.835L665.855 610.985Z" fill="#16529C"></path><path d="M392.747 501.843C392.747 501.843 433.994 534.338 443.639 537.918C453.193 541.498 456.592 523.966 446.12 505.607C435.739 487.248 422.603 469.349 422.603 469.349L524.846 418.954L441.435 304.856L343.417 444.289L392.656 501.752L392.747 501.843Z" fill="#16529C" fill-opacity="0.7"></path><path d="M396.514 496.611L443.639 537.826C435.28 534.705 402.944 509.738 394.677 503.312L396.514 496.611Z" fill="#64829F"></path><path d="M462.839 337.534L439.689 326.794L454.938 268.23L462.839 337.534Z" fill="#16529C"></path><path d="M327.525 404.176L303.181 413.539L294.822 431.622C294.822 431.622 374.467 506.433 390.726 511.39C406.986 516.347 406.343 469.716 398.535 453.101C390.727 436.395 327.525 404.176 327.525 404.176Z" fill="#E6F6FA"></path><path d="M322.932 318.074L288.575 401.422L299.782 408.949L327.709 397.291L355.267 322.664L322.932 318.074Z" fill="#E6F6FA"></path><path d="M319.441 330.282L292.617 404.176L288.575 401.422L318.063 330.282H319.441Z" fill="#64829F"></path><path d="M341.947 348.09C355.646 348.09 366.75 336.994 366.75 323.306C366.75 309.618 355.646 298.522 341.947 298.522C328.249 298.522 317.145 309.618 317.145 323.306C317.145 336.994 328.249 348.09 341.947 348.09Z" fill="#16529C"></path><path d="M319.441 330.282C319.441 331.751 319.533 333.22 319.717 334.597C317.971 331.2 317.053 327.437 317.053 323.398C317.053 309.721 328.168 298.614 341.856 298.614C342.131 298.614 342.315 298.614 342.591 298.614C329.179 302.928 319.349 315.412 319.349 330.282H319.441Z" fill="#6C85A1"></path><path d="M316.134 380.126L323.667 400.412L349.296 378.474L341.947 363.511L316.134 380.126Z" fill="#16529C"></path><path d="M349.388 374.159L325.596 392.243C325.596 392.243 321.462 407.205 323.483 406.379C325.596 405.553 383.102 445.942 394.768 455.947C406.435 465.952 417.55 438.415 409.742 418.036C401.842 397.658 349.388 374.068 349.388 374.068V374.159Z" fill="#E6F6FA"></path><path d="M450.345 374.159L438.219 366.632L407.905 425.839L424.44 435.385L450.345 374.159Z" fill="#16529C"></path><path d="M352.787 338.911L336.436 326.794L318.522 337.167L309.428 374.159L323.575 386.827L349.388 374.159L352.787 338.911Z" fill="#E6F6FA"></path><path d="M457.235 252.901L341.947 294.758L339.835 321.378L376.12 356.811L446.12 328.997L457.235 252.901Z" fill="#E6F6FA"></path><path d="M454.939 268.23L349.296 302.928L339.835 321.378L341.947 294.758L457.235 252.901L454.939 268.23Z" fill="#16529C" fill-opacity="0.7"></path><path d="M449.978 302.928L360.228 342.215L376.12 356.811L446.12 328.997L449.978 302.928Z" fill="#16529C" fill-opacity="0.3"></path><path d="M454.663 258.408L454.938 334.138L508.494 420.331L541.014 431.622L564.163 360.39L454.663 258.408Z" fill="#E6F6FA"></path><path d="M454.847 298.522L546.158 415.65L541.014 431.622L508.494 420.331L454.939 334.138L454.847 298.522Z" fill="#16529C" fill-opacity="0.3"></path><path d="M603.572 304.764L584.189 278.511L538.258 351.028L542.392 355.525L603.572 304.764Z" fill="#16529C"></path><path d="M957.794 775.111L786.011 515.154L665.855 610.985L725.106 860.112L957.794 775.111Z" fill="white"></path><path d="M661.905 608.691L769.292 518.55L772.416 489.176C772.416 489.176 675.684 371.681 665.855 359.197C656.026 346.713 654.832 329.181 649.136 322.939C646.105 319.543 633.244 314.586 621.853 310.73C612.024 307.334 585.843 319.451 585.843 319.451L535.686 361.125L530.725 410.326L488.744 491.746C488.744 491.746 493.98 522.864 516.486 546.18C538.993 569.495 661.721 608.874 661.721 608.874L661.905 608.691Z" fill="white"></path><path d="M488.836 491.563L491.132 487.065L544.505 509.554C544.505 509.554 597.877 482.659 615.147 498.08C632.509 513.501 654.556 505.148 664.11 490.645C673.663 476.141 683.86 490.645 683.86 490.645C695.251 560.316 650.422 596.849 643.808 602.632C608.9 590.699 533.665 563.712 516.486 545.904C493.98 522.589 488.744 491.471 488.744 491.471L488.836 491.563Z" fill="#E6F6FA"></path><path d="M680.645 398.301C680.645 398.301 683.676 410.693 699.017 428.317C714.358 445.85 728.23 451.725 728.23 451.725C728.23 451.725 705.723 448.145 692.954 431.438C680.185 414.732 680.645 398.301 680.645 398.301Z" fill="#6C85A1"></path><path d="M540.83 356.811L538.258 367.917L536.512 406.287L531.093 407.297L535.777 361.033L540.83 356.811Z" fill="#64829F"></path><path d="M579.596 573.901C612.115 586.018 652.994 593.453 652.994 593.453L643.9 602.724C608.992 590.791 533.757 563.804 516.578 545.996C516.578 545.996 546.985 561.784 579.504 573.901H579.596Z" fill="#16529C" fill-opacity="0.7"></path><path d="M745.132 456.039H736.13L683.952 393.252V381.411C700.946 402.156 726.025 432.723 745.224 456.039H745.132Z" fill="#16529C" fill-opacity="0.7"></path><path d="M513.822 542.967C493.613 520.018 488.836 491.563 488.836 491.563L499.032 471.827L584.189 545.629C584.189 545.629 547.995 550.677 513.914 542.967H513.822Z" fill="#16529C" fill-opacity="0.7"></path><path d="M578.769 312.291L584.189 278.511L493.796 202.874L474.964 201.221L446.12 238.489V258.408L528.704 351.028H538.258L578.769 312.291Z" fill="white"></path><path d="M422.419 237.663L439.873 234.726L469.453 198.1L464.952 181.027L373.64 131.826L358.575 136.048L341.948 166.432L343.968 184.79L422.419 237.663Z" fill="white"></path><path d="M352.787 133.937L339.467 120.168L260.098 104.839C251.647 103.186 244.022 110.255 245.124 118.791C247.513 138.068 260.741 154.315 279.205 160.465L324.494 175.519L336.987 165.514L352.787 133.845V133.937Z" fill="white"></path><path d="M597.325 448.512L455.306 374.159H446.12L419.663 425.38C419.663 425.38 421.776 439.241 421.776 438.598C421.776 437.956 546.617 537.918 546.617 537.918L597.234 448.512H597.325Z" fill="white"></path><path d="M438.219 374.159V363.144C438.219 363.144 366.107 321.929 346.908 334.78C327.709 347.723 338.549 372.324 350.215 384.807C361.882 397.291 404.047 428.134 404.047 428.134L415.621 421.433L438.219 374.159Z" fill="white"></path><path d="M546.617 537.826C546.617 537.826 421.776 437.956 421.776 438.506C421.776 439.057 419.663 425.288 419.663 425.288L420.122 424.462C418.285 423.728 416.448 422.902 414.794 421.8L404.047 428.042C404.047 428.042 361.974 397.199 350.215 384.716C342.958 377.005 336.068 364.613 336.436 353.322C340.937 362.135 349.848 376.179 364.638 386.827C387.787 403.533 398.535 408.949 398.535 408.949L403.863 395.272L442.813 422.259L431.973 431.622L520.804 496.611C520.804 496.611 525.673 484.403 530.45 476.141C532.746 472.194 549.465 488.166 564.163 506.984L546.617 537.918V537.826Z" fill="#E6F6FA"></path><path d="M420.949 433.366L421.776 438.598L546.617 537.826L549.098 531.034L420.949 433.366Z" fill="#64829F"></path><path d="M575.738 546.363C603.236 546.363 625.527 524.089 625.527 496.611C625.527 469.134 603.236 446.859 575.738 446.859C548.24 446.859 525.948 469.134 525.948 496.611C525.948 524.089 548.24 546.363 575.738 546.363Z" fill="#16529C"></path><path d="M429.125 426.206C443.381 426.206 454.939 414.658 454.939 400.412C454.939 386.167 443.381 374.618 429.125 374.618C414.869 374.618 403.312 386.167 403.312 400.412C403.312 414.658 414.869 426.206 429.125 426.206Z" fill="#16529C"></path><path d="M430.779 380.493C418.01 380.493 407.629 390.866 407.629 403.625C407.629 406.838 408.272 409.959 409.466 412.713C407.17 409.133 405.884 404.91 405.884 400.412C405.884 387.653 416.264 377.28 429.033 377.28C438.587 377.28 446.763 383.063 450.253 391.233C446.12 384.807 438.954 380.493 430.687 380.493H430.779Z" fill="#6C85A1"></path><path d="M578.769 459.252C554.977 459.252 535.686 478.528 535.686 502.302C535.686 508.361 536.972 514.052 539.177 519.284C534.951 512.583 532.471 504.781 532.471 496.336C532.471 472.562 551.762 453.285 575.554 453.285C593.284 453.285 608.533 464.025 615.147 479.354C607.522 467.329 594.11 459.252 578.677 459.252H578.769Z" fill="#6C85A1"></path><path d="M682.85 515.154C682.85 453.469 632.601 403.258 570.869 403.258C556.63 403.258 542.943 406.012 530.358 410.877L530.725 410.142L531.276 405.185C543.678 400.688 556.998 398.301 570.869 398.301C635.357 398.301 687.81 450.715 687.81 515.154C687.81 550.586 671.918 582.346 647.023 603.734C645.278 603.183 643.441 602.54 641.511 601.898C666.682 581.336 682.85 550.127 682.85 515.154Z" fill="#16529C" fill-opacity="0.3"></path><path d="M702.049 582.162L805.119 818.438" stroke="#E6F6FA" stroke-width="2" stroke-miterlimit="10"></path><path d="M555.069 334.964L456.041 225.638" stroke="#E6F6FA" stroke-width="2" stroke-miterlimit="10"></path><path d="M450.345 221.875L345.806 159.272" stroke="#E6F6FA" stroke-width="2" stroke-miterlimit="10"></path><path d="M340.018 159.364L247.421 129.256C246.778 127.42 246.227 125.4 245.859 123.473L342.315 154.774L340.018 159.272V159.364Z" fill="#E6F6FA"></path><path d="M687.902 593.453L772.416 842.855L725.106 860.112L665.855 610.985L687.902 593.453Z" fill="#E6F6FA"></path><path d="M294.822 431.622L303.181 413.539L386.776 509.554C364.362 496.887 294.914 431.622 294.914 431.622H294.822Z" fill="#16529C" fill-opacity="0.1"></path><path d="M326.423 407.756L410.477 446.033C407.445 455.763 401.199 461.455 394.86 456.039C384.572 447.227 338.548 414.732 326.423 407.756Z" fill="#16529C" fill-opacity="0.1"></path><path d="M336.436 326.794L324.31 339.737L316.134 368.835L323.575 386.827L309.428 374.159L318.522 337.167L336.436 326.794Z" fill="#64829F"></path><path d="M422.419 237.663L343.968 184.79L341.947 166.432L439.873 234.726L422.419 237.663Z" fill="#E6F6FA"></path><path d="M446.12 258.408V238.489L538.258 351.028H528.704L446.12 258.408Z" fill="#E6F6FA"></path><path d="M283.615 149.725C302.722 156.61 336.895 165.514 336.895 165.514L324.402 175.519L279.113 160.465C266.344 156.243 256.056 147.155 250.177 135.498C250.177 135.498 264.691 142.841 283.707 149.725H283.615Z" fill="#E6F6FA"></path><path d="M294.822 431.622L296.475 428.042L349.296 480.548C323.024 458.058 294.822 431.53 294.822 431.53V431.622Z" fill="#64829F"></path><path d="M283.615 414.089C283.615 409.959 285.176 406.287 287.657 403.441L289.586 404.543C287.014 407.847 285.544 411.978 285.544 416.568C285.544 419.23 286.095 421.708 287.014 424.095C284.901 421.341 283.615 417.945 283.615 414.181V414.089Z" fill="#49C8F1"></path><path d="M260.006 104.839L339.375 120.168L246.778 110.622C249.442 106.399 254.494 103.829 260.006 104.839Z" fill="#6C85A1"></path><path d="M469.453 198.1L462.196 184.79L376.488 140.087L358.575 136.048L373.64 131.826L464.951 181.027L469.453 198.1Z" fill="#16529C" fill-opacity="0.7"></path><path d="M578.769 312.291L575.37 281.816L492.602 210.217L474.964 201.221L493.796 202.874L584.189 278.511L578.769 312.291Z" fill="#16529C" fill-opacity="0.7"></path><path d="M621.945 310.639C633.244 314.494 646.196 319.543 649.228 322.847C654.831 329.089 656.118 346.622 665.947 359.105C667.692 361.4 672.377 367.091 678.716 374.894L674.766 388.112L668.335 374.068C668.335 374.068 648.401 356.352 646.38 344.969C644.267 333.587 640.96 330.099 627.64 321.378C614.32 312.658 586.118 319.267 586.118 319.267C586.118 319.267 612.299 307.242 622.128 310.547L621.945 310.639Z" fill="#16529C" fill-opacity="0.7"></path><path d="M674.674 386.827C674.674 381.686 675.225 376.73 676.236 371.956C677.522 373.517 678.899 375.261 680.369 377.097C679.91 380.31 679.634 383.522 679.634 386.919C679.634 422.993 708.112 452.551 743.755 454.387C745.133 456.131 746.602 457.783 747.888 459.435C747.705 459.435 747.429 459.435 747.245 459.435C707.193 459.435 674.582 426.849 674.582 386.827H674.674Z" fill="#16529C" fill-opacity="0.3"></path><path d="M665.855 610.985L673.112 605.202L695.159 734.263L665.855 610.985Z" fill="#16529C" fill-opacity="0.7"></path><path d="M651.433 605.202L661.905 598.134L668.978 602.724L661.905 608.691L651.433 605.202Z" fill="#16529C" fill-opacity="0.7"></path><path d="M596.591 282.642L595.121 276.216C595.856 276.216 596.59 276.124 597.234 276.124C615.422 276.124 630.58 289.067 633.979 306.324C627.64 292.372 613.585 282.642 597.234 282.642C596.958 282.642 596.774 282.642 596.499 282.642H596.591Z" fill="#6C85A1"></path><path d="M750.828 462.831H743.479L765.985 492.205L769.292 518.458L772.416 489.084L750.828 462.831Z" fill="#16529C" fill-opacity="0.7"></path><path d="M772.416 525.985L957.794 775.111L786.011 515.154L772.416 525.985Z" fill="#16529C" fill-opacity="0.7"></path><path d="M346.908 334.78C366.107 321.837 438.219 363.144 438.219 363.144V374.159C438.219 374.159 435.28 366.449 434.269 365.072C433.259 363.695 404.047 352.68 381.54 342.674C359.034 332.669 343.601 337.35 343.601 337.35C344.611 336.432 345.714 335.515 346.908 334.688V334.78Z" fill="#64829F"></path><path d="M444.466 377.28L446.12 374.068H455.306L597.325 448.42C585.016 448.879 456.133 377.28 456.133 377.28H444.558H444.466Z" fill="#64829F"></path><path d="M422.419 237.663L344.06 184.79L343.325 178.64L344.06 178.824L426.277 237.021L422.419 237.663Z" fill="#6C85A1"></path><path d="M446.12 250.331L446.211 250.422L532.838 351.028H528.704L446.12 258.408V250.331Z" fill="#6C85A1"></path><path d="M279.113 160.465C269.56 157.344 261.476 151.47 255.505 143.851C255.78 144.034 264.507 149.725 279.94 156.794C289.494 161.2 311.541 168.451 327.066 173.408L324.494 175.519L279.205 160.465H279.113Z" fill="#6C85A1"></path><path d="M467.891 181.302C469.912 180.568 472.117 180.109 474.322 180.109C484.059 180.109 491.959 187.636 492.51 197.274C490.397 189.564 483.324 183.872 474.873 183.872C472.852 183.872 470.923 184.24 469.085 184.79L467.799 181.394L467.891 181.302Z" fill="#6C85A1"></path><path d="M342.682 120.352C345.53 118.424 349.021 117.323 352.787 117.323C358.758 117.323 364.086 120.168 367.393 124.666C364.27 122.279 360.32 120.811 356.094 120.811C352.604 120.811 349.296 121.82 346.449 123.473C345.254 122.555 343.968 121.361 342.682 120.26V120.352Z" fill="#93A5BA"></path><path d="M350.215 384.716C344.887 378.933 339.651 370.671 337.446 362.135C337.446 362.135 348.929 381.044 362.708 392.243C376.488 403.441 407.813 425.839 407.813 425.839L403.955 428.042C403.955 428.042 361.882 397.199 350.123 384.716H350.215Z" fill="#64829F"></path><path d="M323.667 400.412C323.667 400.412 376.028 437.497 383.745 447.318C363.076 431.897 325.228 405.644 323.575 406.379C322.564 406.746 323.024 403.717 323.667 400.412Z" fill="#64829F"></path></g><path opacity="0.2" d="M226.921 216.09C283.693 216.09 329.716 170.103 329.716 113.374C329.716 56.6454 283.693 10.6577 226.921 10.6577C170.15 10.6577 124.127 56.6454 124.127 113.374C124.127 170.103 170.15 216.09 226.921 216.09Z" fill="#16529C"></path><path opacity="0.2" d="M226.921 191.123C269.893 191.123 304.729 156.313 304.729 113.374C304.729 70.4346 269.893 35.6254 226.921 35.6254C183.949 35.6254 149.114 70.4346 149.114 113.374C149.114 156.313 183.949 191.123 226.921 191.123Z" fill="#16529C"></path><path opacity="0.2" d="M226.922 166.063C256.043 166.063 279.651 142.474 279.651 113.374C279.651 84.2747 256.043 60.6849 226.922 60.6849C197.8 60.6849 174.193 84.2747 174.193 113.374C174.193 142.474 197.8 166.063 226.922 166.063Z" fill="#16529C"></path><path d="M648.02 55.5304H596.117C583.129 55.5304 572.6 66.0512 572.6 79.0294V130.892C572.6 143.871 583.129 154.391 596.117 154.391H648.02C661.008 154.391 671.536 143.871 671.536 130.892V79.0294C671.536 66.0512 661.008 55.5304 648.02 55.5304Z" fill="#16529C"></path><path d="M642.14 70.9516H601.996C594.285 70.9516 588.033 77.1984 588.033 84.9041V125.018C588.033 132.723 594.285 138.97 601.996 138.97H642.14C649.852 138.97 656.103 132.723 656.103 125.018V84.9041C656.103 77.1984 649.852 70.9516 642.14 70.9516Z" fill="#3683E2"></path><path d="M592.167 63.9753C589.87 63.9753 588.033 62.1395 588.033 59.8446V45.8003C588.033 43.5055 589.87 41.6696 592.167 41.6696C594.464 41.6696 596.301 43.5055 596.301 45.8003V59.8446C596.301 62.1395 594.464 63.9753 592.167 63.9753Z" fill="#FF9501"></path><path d="M612.101 63.9753C609.805 63.9753 607.967 62.1395 607.967 59.8446V45.8003C607.967 43.5055 609.805 41.6696 612.101 41.6696C614.398 41.6696 616.235 43.5055 616.235 45.8003V59.8446C616.235 62.1395 614.398 63.9753 612.101 63.9753Z" fill="#FF9501"></path><path d="M632.035 63.9753C629.739 63.9753 627.901 62.1395 627.901 59.8446V45.8003C627.901 43.5055 629.739 41.6696 632.035 41.6696C634.332 41.6696 636.169 43.5055 636.169 45.8003V59.8446C636.169 62.1395 634.332 63.9753 632.035 63.9753Z" fill="#FF9501"></path><path d="M651.97 63.9753C649.673 63.9753 647.836 62.1395 647.836 59.8446V45.8003C647.836 43.5055 649.673 41.6696 651.97 41.6696C654.266 41.6696 656.103 43.5055 656.103 45.8003V59.8446C656.103 62.1395 654.266 63.9753 651.97 63.9753Z" fill="#FF9501"></path><path d="M592.167 168.344C589.87 168.344 588.033 166.508 588.033 164.213V150.169C588.033 147.874 589.87 146.038 592.167 146.038C594.464 146.038 596.301 147.874 596.301 150.169V164.213C596.301 166.508 594.464 168.344 592.167 168.344Z" fill="#FF9501"></path><path d="M612.101 168.344C609.805 168.344 607.967 166.508 607.967 164.213V150.169C607.967 147.874 609.805 146.038 612.101 146.038C614.398 146.038 616.235 147.874 616.235 150.169V164.213C616.235 166.508 614.398 168.344 612.101 168.344Z" fill="#FF9501"></path><path d="M632.035 168.344C629.739 168.344 627.901 166.508 627.901 164.213V150.169C627.901 147.874 629.739 146.038 632.035 146.038C634.332 146.038 636.169 147.874 636.169 150.169V164.213C636.169 166.508 634.332 168.344 632.035 168.344Z" fill="#FF9501"></path><path d="M651.97 168.344C649.673 168.344 647.836 166.508 647.836 164.213V150.169C647.836 147.874 649.673 146.038 651.97 146.038C654.266 146.038 656.103 147.874 656.103 150.169V164.213C656.103 166.508 654.266 168.344 651.97 168.344Z" fill="#FF9501"></path><path d="M663.085 75.0823C663.085 72.7874 664.922 70.9516 667.219 70.9516H681.274C683.57 70.9516 685.408 72.7874 685.408 75.0823C685.408 77.3771 683.57 79.213 681.274 79.213H667.219C664.922 79.213 663.085 77.3771 663.085 75.0823Z" fill="#FF9501"></path><path d="M663.085 95.0013C663.085 92.7065 664.922 90.8707 667.219 90.8707H681.274C683.57 90.8707 685.408 92.7065 685.408 95.0013C685.408 97.2962 683.57 99.132 681.274 99.132H667.219C664.922 99.132 663.085 97.2962 663.085 95.0013Z" fill="#FF9501"></path><path d="M663.085 114.829C663.085 112.534 664.922 110.698 667.219 110.698H681.274C683.57 110.698 685.408 112.534 685.408 114.829C685.408 117.123 683.57 118.959 681.274 118.959H667.219C664.922 118.959 663.085 117.123 663.085 114.829Z" fill="#FF9501"></path><path d="M663.085 134.748C663.085 132.453 664.922 130.617 667.219 130.617H681.274C683.57 130.617 685.408 132.453 685.408 134.748C685.408 137.043 683.57 138.878 681.274 138.878H667.219C664.922 138.878 663.085 137.043 663.085 134.748Z" fill="#FF9501"></path><path d="M558.637 75.0823C558.637 72.7874 560.474 70.9516 562.771 70.9516H576.826C579.123 70.9516 580.96 72.7874 580.96 75.0823C580.96 77.3771 579.123 79.213 576.826 79.213H562.771C560.474 79.213 558.637 77.3771 558.637 75.0823Z" fill="#FF9501"></path><path d="M558.637 95.0013C558.637 92.7065 560.474 90.8707 562.771 90.8707H576.826C579.123 90.8707 580.96 92.7065 580.96 95.0013C580.96 97.2962 579.123 99.132 576.826 99.132H562.771C560.474 99.132 558.637 97.2962 558.637 95.0013Z" fill="#FF9501"></path><path d="M558.637 114.829C558.637 112.534 560.474 110.698 562.771 110.698H576.826C579.123 110.698 580.96 112.534 580.96 114.829C580.96 117.123 579.123 118.959 576.826 118.959H562.771C560.474 118.959 558.637 117.123 558.637 114.829Z" fill="#FF9501"></path><path d="M558.637 134.748C558.637 132.453 560.474 130.617 562.771 130.617H576.826C579.123 130.617 580.96 132.453 580.96 134.748C580.96 137.043 579.123 138.878 576.826 138.878H562.771C560.474 138.878 558.637 137.043 558.637 134.748Z" fill="#FF9501"></path><path d="M60.0701 209.118H82.6027C84.8651 209.118 86.8559 210.656 87.3083 212.916L92.1044 235.16H50.5684L55.3645 212.916C55.817 210.746 57.8078 209.118 60.0701 209.118Z" fill="#FF9501"></path><path d="M124.048 232.99L135.36 252.522C136.446 254.511 136.084 256.953 134.455 258.49L117.533 273.771L96.7196 237.783L118.438 230.82C120.61 230.097 122.962 231.001 124.048 232.99Z" fill="#FF9501"></path><path d="M135.27 300.266L123.958 319.797C122.872 321.786 120.519 322.691 118.347 321.967L96.6292 315.005L117.442 279.016L134.365 294.298C135.993 295.835 136.446 298.276 135.27 300.266Z" fill="#FF9501"></path><path d="M82.6027 343.759H60.0701C57.8078 343.759 55.817 342.222 55.3645 339.962L50.5684 317.717H92.1044L87.3083 339.962C86.8559 342.132 84.8651 343.759 82.6027 343.759Z" fill="#FF9501"></path><path d="M18.6247 319.797L7.31317 300.266C6.22726 298.276 6.58922 295.835 8.21808 294.298L25.1401 279.016L45.9534 315.005L24.2352 321.967C22.0634 322.691 19.7106 321.786 18.6247 319.797Z" fill="#FF9501"></path><path d="M7.4036 252.522L18.7152 232.99C19.8011 231.001 22.1539 230.097 24.3257 230.82L46.0439 237.783L25.2306 273.771L8.30851 258.49C6.67965 256.953 6.2272 254.511 7.4036 252.522Z" fill="#FF9501"></path><path d="M71.2913 329.473C100.628 329.473 124.41 305.708 124.41 276.394C124.41 247.079 100.628 223.315 71.2913 223.315C41.9545 223.315 18.1722 247.079 18.1722 276.394C18.1722 305.708 41.9545 329.473 71.2913 329.473Z" fill="#16529C"></path><path d="M40.4333 276.394C40.4333 293.484 54.2786 307.319 71.3817 307.319C88.4847 307.319 102.33 293.484 102.33 276.394C102.33 259.304 88.4847 245.469 71.3817 245.469C54.2786 245.469 40.4333 259.304 40.4333 276.394Z" fill="#3683E2"></path><path d="M71.2913 290.862C79.2877 290.862 85.7701 284.384 85.7701 276.394C85.7701 268.403 79.2877 261.926 71.2913 261.926C63.2949 261.926 56.8124 268.403 56.8124 276.394C56.8124 284.384 63.2949 290.862 71.2913 290.862Z" fill="#FF9501"></path></g><defs><clipPath id="clip0_867_502"><path d="M0 0H914V678C914 700.091 896.091 718 874 718H0V0Z" fill="white"></path></clipPath></defs></svg>