<?xml version="1.0" encoding="UTF-8"?>
<svg xmlns="http://www.w3.org/2000/svg" width="116" height="25" viewBox="0 0 116 25" fill="none">
  <path d="M27.2501 15.13L27.9601 13.87C28.0801 13.67 28.3701 13.7 28.4801 13.78C28.5401 13.81 29.6401 14.61 30.6401 14.61C31.2501 14.61 31.6901 14.23 31.6901 13.7C31.6901 13.06 31.1601 12.57 30.1201 12.16C28.8101 11.64 27.1701 10.62 27.1701 8.80002C27.1701 7.29002 28.3401 5.77002 30.6801 5.77002C32.2601 5.77002 33.4801 6.58002 33.9401 6.91002C34.1201 7.02002 34.0901 7.29002 34.0301 7.40002L33.2501 8.57002C33.1401 8.74002 32.8701 8.87002 32.7301 8.77002C32.5901 8.69002 31.4801 7.86002 30.5501 7.86002C30.0001 7.86002 29.5901 8.23002 29.5901 8.64002C29.5901 9.20002 30.0501 9.63002 31.2501 10.12C32.4401 10.59 34.3201 11.52 34.3201 13.59C34.3201 15.16 32.9601 16.74 30.7301 16.74C28.7501 16.74 27.6601 15.92 27.3101 15.57C27.1601 15.42 27.1101 15.36 27.2301 15.14L27.2501 15.13Z" fill="#454B54"></path>
  <path d="M35.4304 6.31998C35.3404 6.11998 35.4604 5.91998 35.6904 5.91998H37.7104C37.8304 5.91998 37.9404 6.00998 37.9704 6.08998L40.4804 11.64H40.5704L43.0804 6.08998C43.1104 6.00998 43.2204 5.91998 43.3404 5.91998H45.3704C45.6004 5.91998 45.7204 6.11998 45.6304 6.31998L40.8504 16.56C40.8104 16.65 40.7104 16.73 40.5904 16.73H40.4404C40.3204 16.73 40.2304 16.65 40.1804 16.56L35.4304 6.31998Z" fill="#454B54"></path>
  <path d="M49.3196 8.15998H47.1396C46.9696 8.15998 46.8496 8.01998 46.8496 7.86998V6.20998C46.8496 6.05998 46.9696 5.91998 47.1396 5.91998H53.8996C54.0696 5.91998 54.1896 6.05998 54.1896 6.20998V7.86998C54.1896 8.01998 54.0696 8.15998 53.8996 8.15998H51.7196V16.28C51.7196 16.43 51.5796 16.57 51.4296 16.57H49.5996C49.4496 16.57 49.3096 16.43 49.3096 16.28V8.15998H49.3196Z" fill="#454B54"></path>
  <path d="M56.3203 6.20998C56.3203 6.05998 56.4403 5.91998 56.6103 5.91998H62.9103C63.0803 5.91998 63.2003 6.05998 63.2003 6.20998V7.86998C63.2003 8.01998 63.0803 8.15998 62.9103 8.15998H58.7003V10.05H62.1703C62.3203 10.05 62.4603 10.19 62.4603 10.34V12C62.4603 12.17 62.3203 12.29 62.1703 12.29H58.7003V14.34H62.9103C63.0803 14.34 63.2003 14.48 63.2003 14.63V16.29C63.2003 16.44 63.0803 16.58 62.9103 16.58H56.6103C56.4403 16.58 56.3203 16.44 56.3203 16.29V6.21998V6.20998Z" fill="#454B54"></path>
  <path d="M70.5506 5.77001C72.0706 5.77001 73.2006 6.24001 74.2306 7.19001C74.3706 7.31001 74.3705 7.49001 74.2505 7.61001L73.0605 8.84001C72.9505 8.95001 72.7805 8.95001 72.6805 8.84001C72.1205 8.34001 71.3705 8.06001 70.6305 8.06001C68.9105 8.06001 67.6506 9.49001 67.6506 11.19C67.6506 12.89 68.9306 14.28 70.6506 14.28C71.3606 14.28 72.1406 14.02 72.6906 13.55C72.8006 13.46 72.9906 13.46 73.0806 13.56L74.2705 14.82C74.3805 14.93 74.3605 15.12 74.2505 15.23C73.2105 16.23 71.9106 16.71 70.5506 16.71C67.5106 16.71 65.0605 14.29 65.0605 11.25C65.0605 8.21001 67.5106 5.76001 70.5506 5.76001V5.77001Z" fill="#454B54"></path>
  <path d="M76.54 6.20998C76.54 6.05998 76.68 5.91998 76.83 5.91998H78.64C78.81 5.91998 78.93 6.05998 78.93 6.20998V10.04H83.28V6.20998C83.28 6.05998 83.4 5.91998 83.57 5.91998H85.38C85.53 5.91998 85.67 6.05998 85.67 6.20998V16.28C85.67 16.43 85.53 16.57 85.38 16.57H83.57C83.4 16.57 83.28 16.43 83.28 16.28V12.28H78.93V16.28C78.93 16.43 78.81 16.57 78.64 16.57H76.83C76.68 16.57 76.54 16.43 76.54 16.28V6.20998Z" fill="#454B54"></path>
  <path d="M10.4501 16.17L1.43012 11.66C0.980118 11.44 0.620117 11.66 0.620117 12.16V15.67C0.620117 16.17 0.980118 16.75 1.43012 16.97L10.4501 21.48C10.6701 21.59 10.9601 21.65 11.2601 21.65V16.34C10.9701 16.34 10.6801 16.28 10.4501 16.17Z" fill="#454B54"></path>
  <path d="M12.0705 6.35L21.0905 10.86C21.2705 10.95 21.3705 11.06 21.4105 11.18H21.9005V6.85C21.9005 6.36 21.5405 5.77 21.0905 5.55L12.0705 1.04C11.8505 0.929995 11.5605 0.869995 11.2705 0.869995V6.18C11.5605 6.18 11.8505 6.23 12.0705 6.35Z" fill="#16529C"></path>
  <path d="M17.89 13.26L8.07004 8.35C7.63004 8.13 7.63004 7.77 8.07004 7.54L10.46 6.35C10.68 6.24 10.97 6.18 11.27 6.18V0.869995C10.98 0.869995 10.69 0.919995 10.46 1.04L1.44004 5.55C0.990039 5.77 0.990039 6.13 1.44004 6.36L16.58 13.93L17.89 13.27V13.26Z" fill="#3683E2"></path>
  <path d="M12.0705 16.17C11.8505 16.28 11.5605 16.34 11.2705 16.34V21.65C11.5605 21.65 11.8505 21.6 12.0705 21.48L21.0905 16.97C21.5305 16.75 21.8905 16.16 21.8905 15.67V12.16C21.8905 11.66 21.8905 11.26 21.8905 11.26V11.18H21.4005C21.4505 11.35 21.3505 11.53 21.0805 11.66L12.0605 16.17H12.0705Z" fill="#67727E"></path>
  <path d="M29.3505 19.75V24.58H28.7805V19.75H27.2305V19.24H30.8905V19.75H29.3405H29.3505Z" fill="#454B54"></path>
  <path d="M34.2204 24.59V22.31C34.2204 21.67 33.8804 21.33 33.3204 21.33C32.7604 21.33 32.4004 21.67 32.4004 22.31V24.59H31.8604V19.24H32.4004V21.3C32.6704 20.99 33.0203 20.85 33.4403 20.85C34.2703 20.85 34.7704 21.38 34.7704 22.22V24.59H34.2304H34.2204Z" fill="#454B54"></path>
  <path d="M36.53 22.88C36.53 23.69 36.91 24.16 37.62 24.16C38.05 24.16 38.3 24.03 38.59 23.74L38.96 24.06C38.58 24.44 38.24 24.63 37.61 24.63C36.63 24.63 36 24.04 36 22.74C36 21.55 36.58 20.85 37.52 20.85C38.46 20.85 39.04 21.54 39.04 22.64V22.89H36.55L36.53 22.88ZM38.37 21.86C38.23 21.52 37.9 21.3 37.51 21.3C37.12 21.3 36.79 21.52 36.65 21.86C36.57 22.06 36.55 22.18 36.54 22.48H38.49C38.47 22.18 38.46 22.07 38.38 21.86H38.37Z" fill="#454B54"></path>
  <path d="M42.32 19.75V21.72H44.66V22.23H42.32V24.59H41.75V19.24H45.07V19.75H42.32Z" fill="#454B54"></path>
  <path d="M48.3102 24.21C48.0602 24.46 47.7002 24.63 47.2502 24.63C46.8002 24.63 46.4502 24.46 46.1902 24.21C45.8102 23.83 45.7402 23.31 45.7402 22.74C45.7402 22.17 45.8202 21.65 46.1902 21.27C46.4502 21.01 46.8002 20.85 47.2502 20.85C47.7002 20.85 48.0502 21.02 48.3102 21.27C48.6902 21.65 48.7602 22.17 48.7602 22.74C48.7602 23.31 48.6802 23.83 48.3102 24.21ZM47.9302 21.6C47.7602 21.43 47.5202 21.33 47.2502 21.33C46.9802 21.33 46.7502 21.43 46.5802 21.6C46.3102 21.87 46.2802 22.33 46.2802 22.74C46.2802 23.15 46.3102 23.61 46.5802 23.88C46.7502 24.05 46.9902 24.15 47.2502 24.15C47.5102 24.15 47.7502 24.05 47.9302 23.88C48.2002 23.61 48.2202 23.15 48.2202 22.74C48.2202 22.33 48.2002 21.87 47.9302 21.6Z" fill="#454B54"></path>
  <path d="M52.3807 24.59V24.18C52.1207 24.48 51.7507 24.64 51.3407 24.64C50.9307 24.64 50.6107 24.52 50.3907 24.29C50.1307 24.03 50.0107 23.68 50.0107 23.25V20.89H50.5507V23.16C50.5507 23.81 50.9007 24.14 51.4507 24.14C52.0007 24.14 52.3707 23.8 52.3707 23.16V20.89H52.9107V24.58H52.3807V24.59Z" fill="#454B54"></path>
  <path d="M56.7108 24.59V22.31C56.7108 21.66 56.3608 21.33 55.8008 21.33C55.2408 21.33 54.8808 21.67 54.8808 22.31V24.59H54.3408V20.9H54.8808V21.31C55.1408 21.01 55.5008 20.86 55.9208 20.86C56.3408 20.86 56.6408 20.98 56.8708 21.21C57.1308 21.46 57.2508 21.81 57.2508 22.24V24.61H56.7108V24.59Z" fill="#454B54"></path>
  <path d="M60.9 24.59V24.15C60.6 24.54 60.25 24.64 59.85 24.64C59.47 24.64 59.14 24.51 58.95 24.32C58.57 23.94 58.5 23.33 58.5 22.75C58.5 22.17 58.58 21.56 58.95 21.18C59.15 20.98 59.48 20.86 59.85 20.86C60.26 20.86 60.59 20.95 60.89 21.33V19.25H61.43V24.6H60.9V24.59ZM59.96 21.33C59.16 21.33 59.03 22.02 59.03 22.74C59.03 23.46 59.16 24.15 59.96 24.15C60.76 24.15 60.88 23.46 60.88 22.74C60.88 22.02 60.76 21.33 59.96 21.33Z" fill="#454B54"></path>
  <path d="M65.0004 24.59V24.24C64.7004 24.54 64.4304 24.64 63.9304 24.64C63.4304 24.64 63.1204 24.54 62.8904 24.3C62.7104 24.12 62.6104 23.84 62.6104 23.55C62.6104 22.9 63.0604 22.48 63.8904 22.48H65.0004V22.13C65.0004 21.59 64.7304 21.32 64.0504 21.32C63.5804 21.32 63.3404 21.43 63.1204 21.74L62.7504 21.4C63.0804 20.97 63.4603 20.85 64.0603 20.85C65.0503 20.85 65.5404 21.28 65.5404 22.08V24.59H65.0004ZM65.0004 22.88H63.9604C63.4004 22.88 63.1303 23.11 63.1303 23.53C63.1303 23.95 63.3904 24.16 63.9804 24.16C64.3004 24.16 64.5703 24.14 64.8103 23.91C64.9403 23.79 65.0004 23.58 65.0004 23.27V22.87V22.88Z" fill="#454B54"></path>
  <path d="M67.9503 24.59C67.3203 24.59 67.0003 24.15 67.0003 23.6V21.33H66.5303V20.92H67.0003V19.76H67.5403V20.92H68.3303V21.33H67.5403V23.58C67.5403 23.92 67.7003 24.12 68.0403 24.12H68.3303V24.59H67.9503Z" fill="#454B54"></path>
  <path d="M69.4902 24.59V20.9H70.0302V24.59H69.4902ZM69.5602 20.64V20.24H69.9602V20.64H69.5602Z" fill="#454B54"></path>
  <path d="M73.86 24.21C73.61 24.46 73.25 24.63 72.8 24.63C72.35 24.63 72 24.46 71.74 24.21C71.36 23.83 71.29 23.31 71.29 22.74C71.29 22.17 71.37 21.65 71.74 21.27C72 21.01 72.35 20.85 72.8 20.85C73.25 20.85 73.6 21.02 73.86 21.27C74.24 21.65 74.31 22.17 74.31 22.74C74.31 23.31 74.23 23.83 73.86 24.21ZM73.48 21.6C73.31 21.43 73.07 21.33 72.8 21.33C72.53 21.33 72.3 21.43 72.13 21.6C71.86 21.87 71.83 22.33 71.83 22.74C71.83 23.15 71.86 23.61 72.13 23.88C72.3 24.05 72.54 24.15 72.8 24.15C73.06 24.15 73.3 24.05 73.48 23.88C73.75 23.61 73.77 23.15 73.77 22.74C73.77 22.33 73.75 21.87 73.48 21.6Z" fill="#454B54"></path>
  <path d="M77.9403 24.59V22.31C77.9403 21.66 77.5903 21.33 77.0303 21.33C76.4703 21.33 76.1103 21.67 76.1103 22.31V24.59H75.5703V20.9H76.1103V21.31C76.3703 21.01 76.7303 20.86 77.1503 20.86C77.5703 20.86 77.8703 20.98 78.1003 21.21C78.3603 21.46 78.4803 21.81 78.4803 22.24V24.61H77.9403V24.59Z" fill="#454B54"></path>
  <path d="M83.6608 24.21C83.4108 24.46 83.0508 24.63 82.6008 24.63C82.1508 24.63 81.8008 24.46 81.5408 24.21C81.1608 23.83 81.0908 23.31 81.0908 22.74C81.0908 22.17 81.1708 21.65 81.5408 21.27C81.8008 21.01 82.1508 20.85 82.6008 20.85C83.0508 20.85 83.4008 21.02 83.6608 21.27C84.0408 21.65 84.1108 22.17 84.1108 22.74C84.1108 23.31 84.0308 23.83 83.6608 24.21ZM83.2808 21.6C83.1108 21.43 82.8708 21.33 82.6008 21.33C82.3308 21.33 82.1008 21.43 81.9308 21.6C81.6608 21.87 81.6308 22.33 81.6308 22.74C81.6308 23.15 81.6608 23.61 81.9308 23.88C82.1008 24.05 82.3408 24.15 82.6008 24.15C82.8608 24.15 83.1008 24.05 83.2808 23.88C83.5508 23.61 83.5708 23.15 83.5708 22.74C83.5708 22.33 83.5508 21.87 83.2808 21.6Z" fill="#454B54"></path>
  <path d="M86.0002 21.33V24.59H85.4602V21.33H84.9902V20.92H85.4602V20.22C85.4602 19.67 85.7702 19.23 86.4002 19.23H86.7902V19.7H86.5002C86.1502 19.7 86.0002 19.9 86.0002 20.24V20.92H86.7902V21.33H86.0002Z" fill="#454B54"></path>
  <path d="M90.6601 24.63C89.8601 24.63 89.3301 24.43 88.8301 23.92L89.2201 23.53C89.6601 23.97 90.0801 24.12 90.6801 24.12C91.4601 24.12 91.9401 23.75 91.9401 23.13C91.9401 22.85 91.8601 22.61 91.6901 22.46C91.5201 22.31 91.3801 22.26 90.9901 22.2L90.3701 22.1C89.9501 22.03 89.6201 21.9 89.3901 21.7C89.1201 21.46 88.9801 21.13 88.9801 20.7C88.9801 19.79 89.6301 19.19 90.6901 19.19C91.3701 19.19 91.8201 19.36 92.2801 19.78L91.9101 20.15C91.5801 19.85 91.2301 19.69 90.6601 19.69C89.9501 19.69 89.5301 20.09 89.5301 20.68C89.5301 20.94 89.6101 21.15 89.7701 21.3C89.9401 21.44 90.2101 21.55 90.4901 21.59L91.0801 21.68C91.5801 21.76 91.8301 21.86 92.0601 22.06C92.3501 22.31 92.5101 22.68 92.5101 23.12C92.5101 24.06 91.7701 24.64 90.6601 24.64V24.63Z" fill="#454B54"></path>
  <path d="M95.9403 24.59V24.18C95.6803 24.48 95.3103 24.64 94.9003 24.64C94.4903 24.64 94.1703 24.52 93.9503 24.29C93.6903 24.03 93.5703 23.68 93.5703 23.25V20.89H94.1103V23.16C94.1103 23.81 94.4603 24.14 95.0103 24.14C95.5603 24.14 95.9303 23.8 95.9303 23.16V20.89H96.4703V24.58H95.9403V24.59Z" fill="#454B54"></path>
  <path d="M99.3705 24.63C98.4405 24.63 97.7305 24 97.7305 22.74C97.7305 21.48 98.4405 20.85 99.3705 20.85C99.8805 20.85 100.2 20.99 100.59 21.4L100.22 21.75C99.9405 21.44 99.7205 21.34 99.3705 21.34C99.0205 21.34 98.7105 21.48 98.5105 21.76C98.3405 22 98.2705 22.29 98.2705 22.75C98.2705 23.21 98.3405 23.5 98.5105 23.74C98.7105 24.02 99.0105 24.16 99.3705 24.16C99.7305 24.16 99.9405 24.05 100.22 23.74L100.59 24.09C100.21 24.5 99.8805 24.64 99.3705 24.64V24.63Z" fill="#454B54"></path>
  <path d="M103.04 24.63C102.11 24.63 101.4 24 101.4 22.74C101.4 21.48 102.11 20.85 103.04 20.85C103.55 20.85 103.87 20.99 104.26 21.4L103.89 21.75C103.61 21.44 103.39 21.34 103.04 21.34C102.69 21.34 102.38 21.48 102.18 21.76C102.01 22 101.94 22.29 101.94 22.75C101.94 23.21 102.01 23.5 102.18 23.74C102.38 24.02 102.68 24.16 103.04 24.16C103.4 24.16 103.61 24.05 103.89 23.74L104.26 24.09C103.88 24.5 103.55 24.64 103.04 24.64V24.63Z" fill="#454B54"></path>
  <path d="M105.65 22.88C105.65 23.69 106.03 24.16 106.74 24.16C107.17 24.16 107.41 24.03 107.71 23.74L108.08 24.06C107.7 24.44 107.36 24.63 106.73 24.63C105.75 24.63 105.12 24.04 105.12 22.74C105.12 21.55 105.7 20.85 106.64 20.85C107.58 20.85 108.16 21.54 108.16 22.64V22.89H105.67L105.65 22.88ZM107.49 21.86C107.35 21.52 107.02 21.3 106.63 21.3C106.24 21.3 105.91 21.52 105.77 21.86C105.69 22.06 105.67 22.18 105.66 22.48H107.61C107.59 22.18 107.58 22.07 107.5 21.86H107.49Z" fill="#454B54"></path>
  <path d="M110.55 24.63C109.93 24.63 109.44 24.49 109.03 24.1L109.39 23.74C109.68 24.05 110.08 24.17 110.54 24.17C111.15 24.17 111.52 23.95 111.52 23.52C111.52 23.2 111.33 23.02 110.9 22.98L110.29 22.93C109.57 22.87 109.19 22.55 109.19 21.94C109.19 21.26 109.76 20.86 110.55 20.86C111.08 20.86 111.55 20.99 111.88 21.26L111.53 21.61C111.27 21.41 110.93 21.32 110.55 21.32C110.01 21.32 109.72 21.55 109.72 21.93C109.72 22.25 109.9 22.43 110.37 22.47L110.96 22.52C111.61 22.58 112.05 22.83 112.05 23.52C112.05 24.21 111.44 24.65 110.55 24.65V24.63Z" fill="#454B54"></path>
  <path d="M114.35 24.63C113.73 24.63 113.24 24.49 112.83 24.1L113.19 23.74C113.48 24.05 113.88 24.17 114.34 24.17C114.95 24.17 115.32 23.95 115.32 23.52C115.32 23.2 115.13 23.02 114.7 22.98L114.09 22.93C113.37 22.87 112.99 22.55 112.99 21.94C112.99 21.26 113.56 20.86 114.35 20.86C114.88 20.86 115.35 20.99 115.68 21.26L115.33 21.61C115.07 21.41 114.73 21.32 114.35 21.32C113.81 21.32 113.52 21.55 113.52 21.93C113.52 22.25 113.7 22.43 114.17 22.47L114.76 22.52C115.41 22.58 115.85 22.83 115.85 23.52C115.85 24.21 115.24 24.65 114.35 24.65V24.63Z" fill="#454B54"></path>
</svg>
