<?xml version="1.0" encoding="UTF-8"?>
<svg xmlns="http://www.w3.org/2000/svg" width="116" height="25" viewBox="0 0 116 25" fill="none">
  <path d="M27.2501 15.13L27.9601 13.87C28.0801 13.67 28.3701 13.7 28.4801 13.78C28.5401 13.81 29.6401 14.61 30.6401 14.61C31.2501 14.61 31.6901 14.23 31.6901 13.7C31.6901 13.06 31.1601 12.57 30.1201 12.16C28.8101 11.64 27.1701 10.62 27.1701 8.8C27.1701 7.29 28.3401 5.77001 30.6801 5.77001C32.2601 5.77001 33.4801 6.58 33.9401 6.91C34.1201 7.02 34.0901 7.29001 34.0301 7.40001L33.2501 8.57C33.1401 8.74 32.8701 8.87 32.7301 8.77C32.5901 8.69 31.4801 7.86 30.5501 7.86C30.0001 7.86 29.5901 8.23 29.5901 8.64C29.5901 9.2 30.0501 9.63001 31.2501 10.12C32.4401 10.59 34.3201 11.52 34.3201 13.59C34.3201 15.16 32.9601 16.74 30.7301 16.74C28.7501 16.74 27.6601 15.92 27.3101 15.57C27.1601 15.42 27.1101 15.36 27.2301 15.14L27.2501 15.13Z" fill="white"></path>
  <path d="M35.4301 6.32C35.3401 6.12 35.4601 5.92 35.6901 5.92H37.7101C37.8301 5.92 37.9401 6.01 37.9701 6.09L40.4801 11.64H40.5701L43.0801 6.09C43.1101 6.01 43.2201 5.92 43.3401 5.92H45.3701C45.6001 5.92 45.7201 6.12 45.6301 6.32L40.8501 16.56C40.8101 16.65 40.7101 16.73 40.5901 16.73H40.4401C40.3201 16.73 40.2301 16.65 40.1801 16.56L35.4301 6.32Z" fill="white"></path>
  <path d="M49.3201 8.16H47.1401C46.9701 8.16 46.8501 8.02001 46.8501 7.87001V6.21C46.8501 6.06 46.9701 5.92 47.1401 5.92H53.9001C54.0701 5.92 54.1901 6.06 54.1901 6.21V7.87001C54.1901 8.02001 54.0701 8.16 53.9001 8.16H51.7201V16.28C51.7201 16.43 51.5801 16.57 51.4301 16.57H49.6001C49.4501 16.57 49.3101 16.43 49.3101 16.28V8.16H49.3201Z" fill="white"></path>
  <path d="M56.3201 6.21C56.3201 6.06 56.4401 5.92 56.6101 5.92H62.9101C63.0801 5.92 63.2001 6.06 63.2001 6.21V7.87001C63.2001 8.02001 63.0801 8.16 62.9101 8.16H58.7001V10.05H62.1701C62.3201 10.05 62.4601 10.19 62.4601 10.34V12C62.4601 12.17 62.3201 12.29 62.1701 12.29H58.7001V14.34H62.9101C63.0801 14.34 63.2001 14.48 63.2001 14.63V16.29C63.2001 16.44 63.0801 16.58 62.9101 16.58H56.6101C56.4401 16.58 56.3201 16.44 56.3201 16.29V6.21Z" fill="white"></path>
  <path d="M70.5501 5.77001C72.0701 5.77001 73.2001 6.24001 74.2301 7.19001C74.3701 7.31001 74.3701 7.49 74.2501 7.61L73.0601 8.84C72.9501 8.95 72.7801 8.95 72.6801 8.84C72.1201 8.34 71.3701 8.06001 70.6301 8.06001C68.9101 8.06001 67.6501 9.49001 67.6501 11.19C67.6501 12.89 68.9301 14.28 70.6501 14.28C71.3601 14.28 72.1401 14.02 72.6901 13.55C72.8001 13.46 72.9901 13.46 73.0801 13.56L74.2701 14.82C74.3801 14.93 74.3601 15.12 74.2501 15.23C73.2101 16.23 71.9101 16.71 70.5501 16.71C67.5101 16.71 65.0601 14.29 65.0601 11.25C65.0601 8.21 67.5101 5.76 70.5501 5.76V5.77001Z" fill="white"></path>
  <path d="M76.5401 6.21C76.5401 6.06 76.6801 5.92 76.8301 5.92H78.6401C78.8101 5.92 78.9301 6.06 78.9301 6.21V10.04H83.2801V6.21C83.2801 6.06 83.4001 5.92 83.5701 5.92H85.3801C85.5301 5.92 85.6701 6.06 85.6701 6.21V16.28C85.6701 16.43 85.5301 16.57 85.3801 16.57H83.5701C83.4001 16.57 83.2801 16.43 83.2801 16.28V12.28H78.9301V16.28C78.9301 16.43 78.8101 16.57 78.6401 16.57H76.8301C76.6801 16.57 76.5401 16.43 76.5401 16.28V6.21Z" fill="white"></path>
  <path d="M10.4501 16.17L1.43012 11.66C0.980118 11.44 0.620117 11.66 0.620117 12.16V15.67C0.620117 16.17 0.980118 16.75 1.43012 16.97L10.4501 21.48C10.6701 21.59 10.9601 21.65 11.2601 21.65V16.34C10.9701 16.34 10.6801 16.28 10.4501 16.17Z" fill="white"></path>
  <path d="M12.0701 6.35001L21.0901 10.86C21.2701 10.95 21.3701 11.06 21.4101 11.18H21.9001V6.85001C21.9001 6.36001 21.5401 5.77 21.0901 5.55L12.0701 1.04C11.8501 0.930005 11.5601 0.870005 11.2701 0.870005V6.18C11.5601 6.18 11.8501 6.23001 12.0701 6.35001Z" fill="white"></path>
  <path d="M17.8901 13.26L8.07012 8.35001C7.63012 8.13001 7.63012 7.77 8.07012 7.54L10.4601 6.35001C10.6801 6.24001 10.9701 6.18 11.2701 6.18V0.870005C10.9801 0.870005 10.6901 0.920005 10.4601 1.04L1.44012 5.55C0.990117 5.77 0.990117 6.13 1.44012 6.36L16.5801 13.93L17.8901 13.27V13.26Z" fill="white"></path>
  <path d="M12.0701 16.17C11.8501 16.28 11.5601 16.34 11.2701 16.34V21.65C11.5601 21.65 11.8501 21.6 12.0701 21.48L21.0901 16.97C21.5301 16.75 21.8901 16.16 21.8901 15.67V12.16C21.8901 11.66 21.8901 11.26 21.8901 11.26V11.18H21.4001C21.4501 11.35 21.3501 11.53 21.0801 11.66L12.0601 16.17H12.0701Z" fill="white"></path>
  <path d="M29.3501 19.75V24.58H28.7801V19.75H27.2301V19.24H30.8901V19.75H29.3401H29.3501Z" fill="white"></path>
  <path d="M34.2201 24.59V22.31C34.2201 21.67 33.8801 21.33 33.3201 21.33C32.7601 21.33 32.4001 21.67 32.4001 22.31V24.59H31.8601V19.24H32.4001V21.3C32.6701 20.99 33.0201 20.85 33.4401 20.85C34.2701 20.85 34.7701 21.38 34.7701 22.22V24.59H34.2201Z" fill="white"></path>
  <path d="M36.5301 22.88C36.5301 23.69 36.9101 24.16 37.6201 24.16C38.0501 24.16 38.3001 24.03 38.5901 23.74L38.9601 24.06C38.5801 24.44 38.2401 24.63 37.6101 24.63C36.6301 24.63 36.0001 24.04 36.0001 22.74C36.0001 21.55 36.5801 20.85 37.5201 20.85C38.4601 20.85 39.0401 21.54 39.0401 22.64V22.89H36.5501L36.5301 22.88ZM38.3701 21.86C38.2301 21.52 37.9001 21.3 37.5101 21.3C37.1201 21.3 36.7901 21.52 36.6501 21.86C36.5701 22.06 36.5501 22.18 36.5401 22.48H38.4901C38.4701 22.18 38.4601 22.07 38.3801 21.86H38.3701Z" fill="white"></path>
  <path d="M42.3201 19.75V21.72H44.6601V22.23H42.3201V24.59H41.7501V19.24H45.0701V19.75H42.3201Z" fill="white"></path>
  <path d="M48.3101 24.21C48.0601 24.46 47.7001 24.63 47.2501 24.63C46.8001 24.63 46.4501 24.46 46.1901 24.21C45.8101 23.83 45.7401 23.31 45.7401 22.74C45.7401 22.17 45.8201 21.65 46.1901 21.27C46.4501 21.01 46.8001 20.85 47.2501 20.85C47.7001 20.85 48.0501 21.02 48.3101 21.27C48.6901 21.65 48.7601 22.17 48.7601 22.74C48.7601 23.31 48.6801 23.83 48.3101 24.21ZM47.9301 21.6C47.7601 21.43 47.5201 21.33 47.2501 21.33C46.9801 21.33 46.7501 21.43 46.5801 21.6C46.3101 21.87 46.2801 22.33 46.2801 22.74C46.2801 23.15 46.3101 23.61 46.5801 23.88C46.7501 24.05 46.9901 24.15 47.2501 24.15C47.5101 24.15 47.7501 24.05 47.9301 23.88C48.2001 23.61 48.2201 23.15 48.2201 22.74C48.2201 22.33 48.2001 21.87 47.9301 21.6Z" fill="white"></path>
  <path d="M52.3801 24.59V24.18C52.1201 24.48 51.7501 24.64 51.3401 24.64C50.9301 24.64 50.6101 24.52 50.3901 24.29C50.1301 24.03 50.0101 23.68 50.0101 23.25V20.89H50.5501V23.16C50.5501 23.81 50.9001 24.14 51.4501 24.14C52.0001 24.14 52.3701 23.8 52.3701 23.16V20.89H52.9101V24.58H52.3801V24.59Z" fill="white"></path>
  <path d="M56.7101 22.31C56.7101 21.66 56.3601 21.33 55.8001 21.33C55.2401 21.33 54.8801 21.67 54.8801 22.31V24.59H54.3401V20.9H54.8801V21.31C55.1401 21.01 55.5001 20.86 55.9201 20.86C56.3401 20.86 56.6401 20.98 56.8701 21.21C57.1301 21.46 57.2501 21.81 57.2501 22.24V24.61H56.7101V22.31Z" fill="white"></path>
  <path d="M60.9001 24.15C60.6001 24.54 60.2501 24.64 59.8501 24.64C59.4701 24.64 59.1401 24.51 58.9501 24.32C58.5701 23.94 58.5001 23.33 58.5001 22.75C58.5001 22.17 58.5801 21.56 58.9501 21.18C59.1501 20.98 59.4801 20.86 59.8501 20.86C60.2601 20.86 60.5901 20.95 60.8901 21.33V19.25H61.4301V24.6H60.9001V24.15ZM59.9601 21.33C59.1601 21.33 59.0301 22.02 59.0301 22.74C59.0301 23.46 59.1601 24.15 59.9601 24.15C60.7601 24.15 60.8801 23.46 60.8801 22.74C60.8801 22.02 60.7601 21.33 59.9601 21.33Z" fill="white"></path>
  <path d="M65.0001 24.59V24.24C64.7001 24.54 64.4301 24.64 63.9301 24.64C63.4301 24.64 63.1201 24.54 62.8901 24.3C62.7101 24.12 62.6101 23.84 62.6101 23.55C62.6101 22.9 63.0601 22.48 63.8901 22.48H65.0001V22.13C65.0001 21.59 64.7301 21.32 64.0501 21.32C63.5801 21.32 63.3401 21.43 63.1201 21.74L62.7501 21.4C63.0801 20.97 63.4601 20.85 64.0601 20.85C65.0501 20.85 65.5401 21.28 65.5401 22.08V24.59H65.0001ZM65.0001 22.88H63.9601C63.4001 22.88 63.1301 23.11 63.1301 23.53C63.1301 23.95 63.3901 24.16 63.9801 24.16C64.3001 24.16 64.5701 24.14 64.8101 23.91C64.9401 23.79 65.0001 23.58 65.0001 23.27V22.87V22.88Z" fill="white"></path>
  <path d="M67.9501 24.59C67.3201 24.59 67.0001 24.15 67.0001 23.6V21.33H66.5301V20.92H67.0001V19.76H67.5401V20.92H68.3301V21.33H67.5401V23.58C67.5401 23.92 67.7001 24.12 68.0401 24.12H68.3301V24.59H67.9501Z" fill="white"></path>
  <path d="M69.4901 24.59V20.9H70.0301V24.59H69.4901ZM69.5601 20.64V20.24H69.9601V20.64H69.5601Z" fill="white"></path>
  <path d="M73.8601 24.21C73.6101 24.46 73.2501 24.63 72.8001 24.63C72.3501 24.63 72.0001 24.46 71.7401 24.21C71.3601 23.83 71.2901 23.31 71.2901 22.74C71.2901 22.17 71.3701 21.65 71.7401 21.27C72.0001 21.01 72.3501 20.85 72.8001 20.85C73.2501 20.85 73.6001 21.02 73.8601 21.27C74.2401 21.65 74.3101 22.17 74.3101 22.74C74.3101 23.31 74.2301 23.83 73.8601 24.21ZM73.4801 21.6C73.3101 21.43 73.0701 21.33 72.8001 21.33C72.5301 21.33 72.3001 21.43 72.1301 21.6C71.8601 21.87 71.8301 22.33 71.8301 22.74C71.8301 23.15 71.8601 23.61 72.1301 23.88C72.3001 24.05 72.5401 24.15 72.8001 24.15C73.0601 24.15 73.3001 24.05 73.4801 23.88C73.7501 23.61 73.7701 23.15 73.7701 22.74C73.7701 22.33 73.7501 21.87 73.4801 21.6Z" fill="white"></path>
  <path d="M77.9401 22.31C77.9401 21.66 77.5901 21.33 77.0301 21.33C76.4701 21.33 76.1101 21.67 76.1101 22.31V24.59H75.5701V20.9H76.1101V21.31C76.3701 21.01 76.7301 20.86 77.1501 20.86C77.5701 20.86 77.8701 20.98 78.1001 21.21C78.3601 21.46 78.4801 21.81 78.4801 22.24V24.61H77.9401V22.31Z" fill="white"></path>
  <path d="M83.6601 24.21C83.4101 24.46 83.0501 24.63 82.6001 24.63C82.1501 24.63 81.8001 24.46 81.5401 24.21C81.1601 23.83 81.0901 23.31 81.0901 22.74C81.0901 22.17 81.1701 21.65 81.5401 21.27C81.8001 21.01 82.1501 20.85 82.6001 20.85C83.0501 20.85 83.4001 21.02 83.6601 21.27C84.0401 21.65 84.1101 22.17 84.1101 22.74C84.1101 23.31 84.0301 23.83 83.6601 24.21ZM83.2801 21.6C83.1101 21.43 82.8701 21.33 82.6001 21.33C82.3301 21.33 82.1001 21.43 81.9301 21.6C81.6601 21.87 81.6301 22.33 81.6301 22.74C81.6301 23.15 81.6601 23.61 81.9301 23.88C82.1001 24.05 82.3401 24.15 82.6001 24.15C82.8601 24.15 83.1001 24.05 83.2801 23.88C83.5501 23.61 83.5701 23.15 83.5701 22.74C83.5701 22.33 83.5501 21.87 83.2801 21.6Z" fill="white"></path>
  <path d="M86.0001 21.33V24.59H85.4601V21.33H84.9901V20.92H85.4601V20.22C85.4601 19.67 85.7701 19.23 86.4001 19.23H86.7901V19.7H86.5001C86.1501 19.7 86.0001 19.9 86.0001 20.24V20.92H86.7901V21.33H86.0001Z" fill="white"></path>
  <path d="M90.6601 24.63C89.8601 24.63 89.3301 24.43 88.8301 23.92L89.2201 23.53C89.6601 23.97 90.0801 24.12 90.6801 24.12C91.4601 24.12 91.9401 23.75 91.9401 23.13C91.9401 22.85 91.8601 22.61 91.6901 22.46C91.5201 22.31 91.3801 22.26 90.9901 22.2L90.3701 22.1C89.9501 22.03 89.6201 21.9 89.3901 21.7C89.1201 21.46 88.9801 21.13 88.9801 20.7C88.9801 19.79 89.6301 19.19 90.6901 19.19C91.3701 19.19 91.8201 19.36 92.2801 19.78L91.9101 20.15C91.5801 19.85 91.2301 19.69 90.6601 19.69C89.9501 19.69 89.5301 20.09 89.5301 20.68C89.5301 20.94 89.6101 21.15 89.7701 21.3C89.9401 21.44 90.2101 21.55 90.4901 21.59L91.0801 21.68C91.5801 21.76 91.8301 21.86 92.0601 22.06C92.3501 22.31 92.5101 22.68 92.5101 23.12C92.5101 24.06 91.7701 24.64 90.6601 24.64V24.63Z" fill="white"></path>
  <path d="M95.9401 24.59V24.18C95.6801 24.48 95.3101 24.64 94.9001 24.64C94.4901 24.64 94.1701 24.52 93.9501 24.29C93.6901 24.03 93.5701 23.68 93.5701 23.25V20.89H94.1101V23.16C94.1101 23.81 94.4601 24.14 95.0101 24.14C95.5601 24.14 95.9301 23.8 95.9301 23.16V20.89H96.4701V24.58H95.9401V24.59Z" fill="white"></path>
  <path d="M99.3701 24.63C98.4401 24.63 97.7301 24 97.7301 22.74C97.7301 21.48 98.4401 20.85 99.3701 20.85C99.8801 20.85 100.2 20.99 100.59 21.4L100.22 21.75C99.9401 21.44 99.7201 21.34 99.3701 21.34C99.0201 21.34 98.7101 21.48 98.5101 21.76C98.3401 22 98.2701 22.29 98.2701 22.75C98.2701 23.21 98.3401 23.5 98.5101 23.74C98.7101 24.02 99.0101 24.16 99.3701 24.16C99.7301 24.16 99.9401 24.05 100.22 23.74L100.59 24.09C100.21 24.5 99.8801 24.64 99.3701 24.64V24.63Z" fill="white"></path>
  <path d="M103.04 24.63C102.11 24.63 101.4 24 101.4 22.74C101.4 21.48 102.11 20.85 103.04 20.85C103.55 20.85 103.87 20.99 104.26 21.4L103.89 21.75C103.61 21.44 103.39 21.34 103.04 21.34C102.69 21.34 102.38 21.48 102.18 21.76C102.01 22 101.94 22.29 101.94 22.75C101.94 23.21 102.01 23.5 102.18 23.74C102.38 24.02 102.68 24.16 103.04 24.16C103.4 24.16 103.61 24.05 103.89 23.74L104.26 24.09C103.88 24.5 103.55 24.64 103.04 24.64V24.63Z" fill="white"></path>
  <path d="M105.65 22.88C105.65 23.69 106.03 24.16 106.74 24.16C107.17 24.16 107.41 24.03 107.71 23.74L108.08 24.06C107.7 24.44 107.36 24.63 106.73 24.63C105.75 24.63 105.12 24.04 105.12 22.74C105.12 21.55 105.7 20.85 106.64 20.85C107.58 20.85 108.16 21.54 108.16 22.64V22.89H105.67L105.65 22.88ZM107.49 21.86C107.35 21.52 107.02 21.3 106.63 21.3C106.24 21.3 105.91 21.52 105.77 21.86C105.69 22.06 105.67 22.18 105.66 22.48H107.61C107.59 22.18 107.58 22.07 107.5 21.86H107.49Z" fill="white"></path>
  <path d="M110.55 24.63C109.93 24.63 109.44 24.49 109.03 24.1L109.39 23.74C109.68 24.05 110.08 24.17 110.54 24.17C111.15 24.17 111.52 23.95 111.52 23.52C111.52 23.2 111.33 23.02 110.9 22.98L110.29 22.93C109.57 22.87 109.19 22.55 109.19 21.94C109.19 21.26 109.76 20.86 110.55 20.86C111.08 20.86 111.55 20.99 111.88 21.26L111.53 21.61C111.27 21.41 110.93 21.32 110.55 21.32C110.01 21.32 109.72 21.55 109.72 21.93C109.72 22.25 109.9 22.43 110.37 22.47L110.96 22.52C111.61 22.58 112.05 22.83 112.05 23.52C112.05 24.21 111.44 24.65 110.55 24.65V24.63Z" fill="white"></path>
  <path d="M114.35 24.63C113.73 24.63 113.24 24.49 112.83 24.1L113.19 23.74C113.48 24.05 113.88 24.17 114.34 24.17C114.95 24.17 115.32 23.95 115.32 23.52C115.32 23.2 115.13 23.02 114.7 22.98L114.09 22.93C113.37 22.87 112.99 22.55 112.99 21.94C112.99 21.26 113.56 20.86 114.35 20.86C114.88 20.86 115.35 20.99 115.68 21.26L115.33 21.61C115.07 21.41 114.73 21.32 114.35 21.32C113.81 21.32 113.52 21.55 113.52 21.93C113.52 22.25 113.7 22.43 114.17 22.47L114.76 22.52C115.41 22.58 115.85 22.83 115.85 23.52C115.85 24.21 115.24 24.65 114.35 24.65V24.63Z" fill="white"></path>
</svg>
